<svg width="49" height="61" viewBox="0 0 49 61" fill="none" xmlns="http://www.w3.org/2000/svg">
<g clip-path="url(#clip0_14_13)">
<path d="M37.4953 38.989C35.9969 38.989 34.7734 40.1688 34.7578 41.622C34.7371 43.1208 35.9969 44.3664 37.5212 44.3613C38.9989 44.3563 40.2172 43.1765 40.2587 41.7131C40.3002 40.2093 39.0559 38.9839 37.5005 38.989H37.4953Z" fill="white"/>
<path d="M36.474 20.0262C38.6567 18.4312 41.2387 17.4134 43.2399 15.5601C40.575 16.4665 38.2316 18.0514 35.6341 19.1552C35.3593 18.5122 35.4163 17.9754 35.6341 17.4134C36.7539 16.5374 38.2212 16.3146 39.4033 15.5247C37.739 15.8032 36.1318 16.2437 34.6023 16.8665C34.2394 17.8742 34.4571 18.8717 34.3016 19.8894C33.415 20.416 32.5077 20.9528 31.5382 21.525C30.6931 20.5325 29.848 19.6515 29.1325 18.6793C28.4326 17.7223 27.8727 16.6842 26.4313 16.6792C26.1254 16.6792 25.7936 16.4311 25.7159 16.0108C26.1462 15.1247 26.9031 16.2741 27.4423 15.7272C27.2764 14.8715 27.2557 13.9905 27.8934 13.2512C27.4112 12.2739 27.5097 11.3017 27.8208 10.2232C26.9031 10.4106 26.1773 9.88903 25.3529 9.75231C23.3828 9.41306 21.9363 10.8106 22.3355 12.7297C22.4132 13.0993 22.5273 13.4588 22.6103 13.8234C22.8799 14.9677 22.5325 15.9298 21.4074 16.3349C17.8922 17.5906 16.9434 21.0085 14.8955 23.2111C15.5695 25.7378 17.1042 27.5303 18.1826 29.4797C17.8819 29.905 17.6226 30.0975 17.2079 29.9456C16.202 29.2367 15.5851 28.148 14.657 27.3581C13.4334 26.3201 11.4011 26.0922 10.2345 26.8467C9.04725 27.6163 8.60655 29.3025 9.21834 30.9228C9.45683 31.5557 9.79383 32.1532 10.0842 32.7609C10.3227 33.2621 10.6908 33.7179 10.6908 34.3305C8.69469 35.642 6.70379 36.9484 4.71289 38.2548C4.79584 38.3813 4.88398 38.5079 4.96694 38.6345C7.02524 37.3838 9.08354 36.1281 11.2144 34.8369C11.7484 35.5762 12.2617 36.2749 12.8839 37.1357C12.2151 37.08 11.8003 37.0446 11.0641 36.9788C12.3447 37.8244 13.366 38.356 14.6467 38.4978C14.9785 37.3484 14.6778 36.3205 14.5222 35.1306C14.0141 35.6268 14.2008 36.2496 13.5942 36.6294C13.0083 35.9205 12.4276 35.2217 11.8107 34.4723C13.7705 33.247 15.611 32.0925 17.4101 30.9633C18.1774 31.0899 18.8514 31.2013 19.6032 31.3228C19.4995 33.3533 20.609 35.0394 21.0445 36.8977C21.2467 37.7687 21.0445 38.4219 20.272 38.9535C19.3232 39.5966 18.7114 40.5232 18.3537 41.5764C17.6952 43.5309 16.9694 45.4297 15.134 46.4678C14.9837 46.9944 14.9785 47.364 15.2273 47.8906C16.6894 48.2906 17.2079 49.759 18.0063 50.9591C18.7995 50.9388 19.5098 51.0857 20.2616 50.8224C17.8456 48.6603 17.7315 46.9387 19.6913 44.4373C20.8008 43.0195 22.1592 41.8549 23.4605 40.6245C24.1034 40.0118 24.3938 39.3687 24.3834 38.4421C24.3678 36.9281 24.596 35.4091 24.7411 33.728C26.4365 34.285 28.0023 34.8015 29.7028 35.3584C28.7592 36.6901 28.7281 37.9712 28.9822 39.313C29.1585 40.2397 28.9148 41.0802 28.2822 41.8448C27.909 42.2904 27.4423 42.7562 27.5927 43.5259C28.2874 44.1791 29.2466 44.6297 29.8221 45.5209C30.5324 46.6298 31.9219 46.7463 33.021 45.8703C30.7812 45.0095 30.1643 43.6322 30.9057 41.3232C31.4812 39.5257 32.1655 37.7788 33.1247 36.1332C33.7624 35.0394 33.7054 34.0369 32.6218 33.1204C31.4241 32.1077 30.1798 31.1659 28.8526 30.3253C25.6329 28.2847 25.9855 29.186 26.7165 25.4846C26.732 25.4137 26.7891 25.358 26.8876 25.2011C27.8519 24.639 28.894 24.0263 30.0658 23.3377C31.6989 25.3631 34.1668 26.077 36.0177 27.4695C36.2458 28.31 36.137 29.1101 36.7125 29.6569C37.3242 29.3582 36.8265 28.6949 37.2828 28.2999C38.2212 28.2949 38.2056 29.4595 38.9885 29.7228C39.113 28.4265 38.5582 27.5809 37.5005 26.9632C35.4008 25.7327 33.8713 23.9149 32.1292 22.1832C33.2025 21.6009 34.1046 21.1148 35.0015 20.6287C35.8103 21.1148 36.2666 22.0465 37.4072 22.1174C38.7915 21.3477 40.0514 20.3452 41.0261 19.0236C39.7766 19.697 38.636 20.5376 37.3294 20.9325C36.8887 20.7806 36.6554 20.5528 36.4636 20.0008L36.474 20.0262ZM11.4633 33.885C10.4264 32.7102 9.88716 31.3583 9.602 29.9152C9.40499 28.9278 9.6694 28.0113 10.5715 27.4391C11.5255 26.8315 12.5521 26.8619 13.5112 27.4391C14.7711 28.2037 15.7458 29.2569 16.679 30.5633C14.9163 31.6874 13.2157 32.7659 11.4633 33.8799V33.885ZM19.6187 30.4722C19.2973 30.5886 18.9758 30.6646 18.5818 30.4266C18.8255 30.0316 19.1262 29.8899 19.4735 29.7987C19.7898 29.9658 19.738 30.2089 19.6187 30.4722ZM19.9402 27.4442C17.8611 26.7353 18.1515 24.877 17.6641 23.3984C18.2137 22.7149 19.0951 22.4617 19.4943 21.6971C21.5215 23.5605 21.6563 25.4745 19.9402 27.4442ZM27.1883 24.2339C27.5253 23.1706 27.7586 22.4414 28.0023 21.6667C28.583 21.9756 28.8733 22.3908 29.2051 22.8668C28.6037 23.2719 28.0282 23.6617 27.1831 24.2339H27.1883Z" fill="white"/>
<path d="M36.1006 4.51665C30.8745 4.51665 24.4974 1.41272 24.4974 1.41272C24.4974 1.41272 18.1203 4.51665 12.8942 4.51665C7.66806 4.51665 1.29614 2.72417 1.29614 2.72417V43.5765C1.29614 47.602 3.74329 51.4249 7.87026 53.2731C9.46713 53.987 11.3906 54.463 13.6978 54.463C22.9057 54.463 24.5026 57.9214 24.5026 57.9214C24.5026 57.9214 26.0943 54.463 35.3074 54.463C37.6145 54.463 39.538 53.987 41.1349 53.2731C45.2619 51.4249 47.709 47.607 47.709 43.5765V2.72417C47.709 2.72417 41.3319 4.51665 36.1058 4.51665H36.1006Z" stroke="white" stroke-width="3" stroke-miterlimit="10"/>
</g>
<defs>
<clipPath id="clip0_14_13">
<rect width="49" height="61" fill="white"/>
</clipPath>
</defs>
</svg>
